<svg width="390" height="109" viewBox="0 0 390 109" fill="none" xmlns="http://www.w3.org/2000/svg">
<path d="M369.623 103.327C369.686 102.642 369.686 101.864 369.623 100.992C369.311 101.179 368.906 101.397 368.407 101.646C367.97 101.895 367.595 102.144 367.283 102.393C365.973 103.327 364.507 104.074 362.884 104.634C361.262 105.195 359.577 105.506 357.83 105.568C356.145 105.631 354.491 105.444 352.869 105.008C351.247 104.572 349.78 103.794 348.47 102.673C347.846 102.113 347.347 100.961 346.972 99.2178C346.66 97.4123 346.442 95.2644 346.317 92.774C346.255 90.2836 346.223 87.5754 346.223 84.6492C346.286 81.6607 346.348 78.6723 346.411 75.6838C346.473 72.6331 346.535 69.7069 346.598 66.9053C346.66 64.1036 346.629 61.6444 346.504 59.5276C348.688 59.2163 350.623 59.0917 352.307 59.154C354.055 59.154 356.02 59.154 358.204 59.154C358.329 60.586 358.391 62.2047 358.391 64.0102C358.391 65.8157 358.36 67.6835 358.298 69.6136C358.298 71.5436 358.298 73.4736 358.298 75.4037C358.36 77.3337 358.454 79.1392 358.579 80.8202C358.641 81.5673 358.703 82.4078 358.766 83.3417C358.828 84.2134 358.922 85.085 359.047 85.9566C359.234 86.8282 359.452 87.6065 359.702 88.2913C360.014 88.9762 360.419 89.5054 360.919 89.8789C360.981 89.9412 361.043 89.9723 361.106 89.9723C361.168 89.9723 361.231 90.0035 361.293 90.0657C361.792 90.3148 362.51 90.5327 363.446 90.7194C364.444 90.844 365.411 90.7817 366.347 90.5327C367.283 90.2214 368.126 89.661 368.875 88.8517C369.623 87.98 370.06 86.7037 370.185 85.0227C370.31 82.9059 370.341 80.7891 370.279 78.6723C370.216 76.5555 370.123 74.4698 369.998 72.4152C369.935 70.2984 369.873 68.2127 369.811 66.1582C369.811 64.1036 369.967 62.0491 370.279 59.9945V59.6209C371.339 59.3096 372.244 59.1229 372.993 59.0606C373.804 58.9984 374.615 58.9984 375.427 59.0606C376.238 59.0606 377.143 59.0917 378.141 59.154C379.139 59.2163 380.387 59.1851 381.885 59.0606C381.885 66.7185 381.947 74.3764 382.072 82.0343C382.259 89.6922 382.228 97.6302 381.979 105.848C381.23 105.786 380.606 105.755 380.107 105.755C379.607 105.693 379.139 105.662 378.703 105.662C378.266 105.662 377.798 105.693 377.299 105.755C376.799 105.755 376.175 105.786 375.427 105.848C375.177 105.848 374.74 105.911 374.116 106.035C373.492 106.097 372.868 106.16 372.244 106.222C371.62 106.284 371.059 106.284 370.559 106.222C370.06 106.222 369.811 106.129 369.811 105.942C369.686 104.883 369.623 104.012 369.623 103.327Z" fill="black"/>
<path d="M324.961 61.6755C325.023 61.8623 325.055 62.1736 325.055 62.6094C325.304 62.4849 325.866 62.2358 326.739 61.8623C327.675 61.4887 328.58 61.1463 329.454 60.835C330.639 60.4614 331.981 60.1813 333.479 59.9945C334.976 59.7455 336.38 59.5898 337.691 59.5275C339.001 59.4653 340.093 59.4653 340.967 59.5275C341.903 59.5275 342.371 59.5587 342.371 59.6209C342.371 61.7377 342.339 63.6055 342.277 65.2243C342.277 66.843 342.277 68.3061 342.277 69.6135C342.277 70.8587 342.277 72.0105 342.277 73.0689C342.277 74.1273 342.308 75.1235 342.371 76.0574L341.528 75.7772C341.216 75.6527 340.873 75.5593 340.499 75.497C340.187 75.3725 339.875 75.248 339.563 75.1235C338.814 74.9367 338.034 74.7811 337.223 74.6565C336.474 74.532 336.068 74.4698 336.006 74.4698C334.321 74.283 332.761 74.1896 331.326 74.1896C329.953 74.1896 328.736 74.4075 327.675 74.8433C326.677 75.2791 325.897 75.964 325.335 76.8979C324.774 77.8318 324.524 79.1703 324.587 80.9136C324.649 83.0927 324.711 85.1472 324.774 87.0773C324.836 89.0073 324.867 90.9685 324.867 92.9608C324.867 94.8908 324.867 96.8831 324.867 98.9377C324.93 100.93 324.961 103.078 324.961 105.381V105.755C323.9 106.066 322.933 106.253 322.059 106.315C321.186 106.378 320.281 106.378 319.345 106.315C318.409 106.315 317.379 106.284 316.256 106.222C315.195 106.16 313.916 106.191 312.419 106.315C312.419 98.6575 312.325 90.9996 312.138 83.3417C312.013 75.6838 312.075 67.7458 312.325 59.5275C313.074 59.5898 313.698 59.6521 314.197 59.7143C314.696 59.7143 315.164 59.7143 315.601 59.7143C316.038 59.7143 316.506 59.7143 317.005 59.7143C317.504 59.6521 318.128 59.5898 318.877 59.5275C319.127 59.5275 319.563 59.4964 320.187 59.4342C320.874 59.3719 321.56 59.3096 322.247 59.2474C322.995 59.1851 323.619 59.1851 324.119 59.2474C324.68 59.2474 324.961 59.3096 324.961 59.4342C324.961 59.9322 324.961 60.3058 324.961 60.5548C324.961 60.8039 324.961 61.0218 324.961 61.2085C324.961 61.3331 324.961 61.4887 324.961 61.6755Z" fill="black"/>
<path d="M293.025 103.327C293.087 102.642 293.087 101.864 293.025 100.992C292.713 101.179 292.307 101.397 291.808 101.646C291.371 101.895 290.997 102.144 290.685 102.393C289.375 103.327 287.908 104.074 286.286 104.634C284.663 105.195 282.979 105.506 281.231 105.568C279.547 105.631 277.893 105.444 276.271 105.008C274.648 104.572 273.182 103.794 271.871 102.673C271.247 102.113 270.748 100.961 270.374 99.2178C270.062 97.4123 269.843 95.2644 269.719 92.774C269.656 90.2836 269.625 87.5754 269.625 84.6492C269.687 81.6607 269.75 78.6723 269.812 75.6838C269.875 72.6331 269.937 69.7069 269.999 66.9053C270.062 64.1036 270.031 61.6444 269.906 59.5276C272.09 59.2163 274.024 59.0917 275.709 59.154C277.456 59.154 279.422 59.154 281.606 59.154C281.731 60.586 281.793 62.2047 281.793 64.0102C281.793 65.8157 281.762 67.6835 281.699 69.6136C281.699 71.5436 281.699 73.4736 281.699 75.4037C281.762 77.3337 281.855 79.1392 281.98 80.8202C282.043 81.5673 282.105 82.4078 282.167 83.3417C282.23 84.2134 282.323 85.085 282.448 85.9566C282.635 86.8282 282.854 87.6065 283.103 88.2913C283.415 88.9762 283.821 89.5054 284.32 89.8789C284.383 89.9412 284.445 89.9723 284.507 89.9723C284.57 89.9723 284.632 90.0035 284.695 90.0657C285.194 90.3148 285.911 90.5327 286.847 90.7194C287.846 90.844 288.813 90.7817 289.749 90.5327C290.685 90.2214 291.527 89.661 292.276 88.8517C293.025 87.98 293.462 86.7037 293.587 85.0227C293.711 82.9059 293.743 80.7891 293.68 78.6723C293.618 76.5555 293.524 74.4698 293.399 72.4152C293.337 70.2984 293.275 68.2127 293.212 66.1582C293.212 64.1036 293.368 62.0491 293.68 59.9945V59.6209C294.741 59.3096 295.646 59.1229 296.395 59.0606C297.206 58.9984 298.017 58.9984 298.828 59.0606C299.639 59.0606 300.544 59.0917 301.543 59.154C302.541 59.2163 303.789 59.1851 305.287 59.0606C305.287 66.7185 305.349 74.3764 305.474 82.0343C305.661 89.6922 305.63 97.6302 305.38 105.848C304.631 105.786 304.007 105.755 303.508 105.755C303.009 105.693 302.541 105.662 302.104 105.662C301.667 105.662 301.199 105.693 300.7 105.755C300.201 105.755 299.577 105.786 298.828 105.848C298.579 105.848 298.142 105.911 297.518 106.035C296.894 106.097 296.27 106.16 295.646 106.222C295.022 106.284 294.46 106.284 293.961 106.222C293.462 106.222 293.212 106.129 293.212 105.942C293.087 104.883 293.025 104.012 293.025 103.327Z" fill="black"/>
<path d="M263.508 50.1887C265.131 53.2395 265.505 57.0995 264.631 61.769H264.538C262.354 62.1425 260.014 62.3916 257.518 62.5161C255.022 62.5783 252.682 62.2982 250.498 61.6756C250.872 59.9946 250.529 58.5937 249.468 57.4731C248.407 56.3524 247.128 55.6364 245.631 55.3251C244.133 55.0138 242.667 55.1695 241.231 55.7921C239.859 56.4147 239.047 57.5976 238.798 59.3409C238.673 59.7767 238.611 60.2125 238.611 60.6483C238.673 61.0219 238.735 61.4265 238.798 61.8624C239.297 63.3566 240.108 64.3527 241.231 64.8508C242.355 65.3489 243.571 65.6913 244.882 65.8781C248.189 66.2516 251.247 67.31 254.055 69.0533C256.925 70.7966 259.265 73.0068 261.075 75.6839C262.198 77.1159 263.04 78.6724 263.602 80.3534C264.163 81.9721 264.475 83.6531 264.538 85.3964C264.663 87.1396 264.538 88.914 264.163 90.7195C263.851 92.4628 263.321 94.1438 262.572 95.7625C261.823 97.6926 260.825 99.3424 259.577 100.712C258.329 102.082 256.894 103.203 255.271 104.074C253.711 104.946 251.995 105.599 250.123 106.035C248.314 106.409 246.442 106.565 244.507 106.502C241.762 106.44 239.016 105.973 236.271 105.101C233.587 104.168 231.185 102.891 229.063 101.272C226.942 99.6537 225.257 97.6926 224.009 95.389C222.761 93.0231 222.231 90.346 222.418 87.3575V87.0774V86.7972C224.602 86.4859 227.004 86.4236 229.625 86.6104C232.246 86.7349 234.617 86.7661 236.739 86.7038C236.863 88.6961 237.643 90.1903 239.079 91.1865C240.576 92.1826 242.136 92.6807 243.759 92.6807C245.443 92.6184 246.879 92.0581 248.064 90.9997C249.312 89.9413 249.749 88.3225 249.375 86.1435C249.187 84.6493 248.626 83.4663 247.69 82.5947C246.754 81.6608 245.631 80.9137 244.32 80.3534C243.072 79.793 241.699 79.3883 240.202 79.1393C238.704 78.828 237.3 78.5478 235.99 78.2988C234.742 78.0498 233.587 77.6451 232.527 77.0847C231.466 76.5244 230.499 75.8707 229.625 75.1236C226.755 72.3842 224.883 69.3646 224.009 66.0649C223.198 62.7651 223.167 59.5588 223.915 56.4458C224.664 53.3328 226.068 50.5 228.127 47.9474C230.249 45.3948 232.807 43.4959 235.803 42.2507C237.3 41.6281 238.954 41.2234 240.763 41.0366C242.573 40.7876 244.383 40.7253 246.192 40.8499C248.064 40.9121 249.874 41.1612 251.621 41.597C253.431 42.0328 255.084 42.5931 256.582 43.278C259.577 44.8345 261.886 47.138 263.508 50.1887Z" fill="black"/>
<path d="M192.819 59.0607C194.254 59.1229 195.97 59.1229 197.967 59.0607H199.558V59.3408C199.496 66.8742 199.34 74.5632 199.09 82.4079C198.903 90.2526 199.028 97.9416 199.465 105.475C199.153 105.849 198.373 106.035 197.125 106.035C195.877 106.098 194.504 106.098 193.006 106.035C191.571 106.035 190.198 106.004 188.888 105.942C187.577 105.88 186.704 105.911 186.267 106.035C186.579 102.113 186.704 98.1284 186.641 94.0815C186.641 90.0347 186.579 86.0189 186.454 82.0344C186.329 78.0498 186.267 74.1274 186.267 70.2673C186.267 66.345 186.454 62.5472 186.829 58.8739V58.7805C187.078 58.7183 187.484 58.7183 188.045 58.7805C188.669 58.8428 189.137 58.8739 189.449 58.8739C190.261 58.9362 191.384 58.9984 192.819 59.0607ZM186.548 45.9862C186.423 43.9939 186.392 41.5658 186.454 38.7019L199.184 38.9821C199.184 39.3556 199.184 40.0405 199.184 41.0366C199.246 41.9705 199.277 43.0289 199.277 44.2118C199.34 45.3325 199.371 46.5154 199.371 47.7606C199.433 48.9436 199.465 50.002 199.465 50.9358C199.215 51.3094 198.622 51.5584 197.686 51.683C196.813 51.8075 195.752 51.8697 194.504 51.8697C193.318 51.8075 192.039 51.7452 190.666 51.683C189.293 51.5584 188.014 51.5273 186.829 51.5896C186.829 49.784 186.735 47.9163 186.548 45.9862Z" fill="black"/>
<path d="M183.17 59.2476C183.17 59.3098 183.139 59.341 183.076 59.341C181.828 63.201 180.393 67.1234 178.771 71.108C177.211 75.0303 176.088 79.0149 175.401 83.0617C176.088 86.7973 177.148 90.6574 178.584 94.642C180.019 98.6265 181.173 102.424 182.047 106.035C181.735 105.973 181.454 105.942 181.204 105.942C180.955 105.942 180.674 105.942 180.362 105.942C179.676 105.942 178.927 105.973 178.116 106.035C177.304 106.035 176.524 106.035 175.776 106.035C175.526 106.035 175.027 106.035 174.278 106.035C173.592 106.035 172.843 106.035 172.032 106.035C171.283 105.973 170.534 105.942 169.785 105.942C169.099 105.88 168.662 105.817 168.475 105.755H168.381C167.882 104.697 167.445 103.545 167.071 102.3C166.759 100.992 166.447 99.6849 166.135 98.3775C165.823 97.0701 165.48 95.7937 165.105 94.5486C164.793 93.2411 164.388 92.0582 163.888 90.9998V90.9064C162.765 93.3968 161.923 96.0117 161.361 98.7511C160.8 101.428 159.989 103.887 158.928 106.129C158.678 106.129 158.241 106.129 157.617 106.129C156.993 106.129 156.307 106.129 155.558 106.129C154.809 106.191 154.092 106.222 153.405 106.222C152.781 106.222 152.344 106.222 152.095 106.222C151.096 106.222 149.911 106.191 148.538 106.129C147.228 106.129 146.167 105.973 145.356 105.662C145.792 104.043 146.323 102.3 146.947 100.432C147.633 98.502 148.32 96.572 149.006 94.642C149.693 92.6497 150.348 90.6574 150.972 88.6651C151.596 86.6728 152.126 84.7739 152.563 82.9683C151.814 79.1083 150.66 75.1859 149.1 71.2013C147.602 67.2167 146.136 63.3567 144.701 59.6211C147.509 59.4343 149.693 59.341 151.253 59.341C151.814 59.341 152.532 59.341 153.405 59.341C154.341 59.341 155.215 59.341 156.026 59.341C156.9 59.341 157.648 59.3721 158.272 59.4343C158.896 59.4966 159.24 59.5589 159.302 59.6211C159.552 60.555 159.864 61.7691 160.238 63.2633C160.675 64.6952 161.08 66.1895 161.455 67.746C161.892 69.2402 162.297 70.7033 162.672 72.1352C163.046 73.5672 163.389 74.6879 163.701 75.4972C164.076 74.6256 164.45 73.5049 164.824 72.1352C165.261 70.7033 165.667 69.209 166.041 67.6526C166.478 66.0961 166.852 64.6019 167.164 63.1699C167.539 61.6757 167.882 60.4616 168.194 59.5277C168.756 59.4655 169.598 59.4343 170.721 59.4343C171.907 59.3721 173.186 59.341 174.559 59.341C175.994 59.2787 177.46 59.2476 178.958 59.2476C180.456 59.2476 181.828 59.2476 183.076 59.2476H183.17Z" fill="black"/>
<path d="M135.754 59.2474C137.314 59.3096 139.092 59.403 141.089 59.5276C141.151 59.9011 141.182 60.2747 141.182 60.6482C141.245 61.0218 141.276 61.3953 141.276 61.7689V62.7028C141.089 69.4268 141.12 76.0574 141.37 82.5946C141.619 89.0696 141.526 95.6379 141.089 102.3C141.089 103.109 141.058 103.918 140.995 104.728C140.995 105.537 140.621 106.004 139.872 106.129H138.749C137.75 106.129 136.721 106.097 135.66 106.035C134.662 105.911 133.663 105.848 132.665 105.848C131.978 105.848 131.292 105.911 130.606 106.035C129.982 106.097 129.326 106.129 128.64 106.129C128.203 106.004 127.891 105.755 127.704 105.382C127.579 105.008 127.517 104.572 127.517 104.074C127.517 103.389 127.579 102.829 127.704 102.393C127.829 101.957 127.891 101.428 127.891 100.805C126.394 102.3 124.49 103.576 122.182 104.634C119.935 105.693 117.72 106.222 115.536 106.222C113.102 106.222 111.012 105.381 109.265 103.7C107.58 102.019 106.176 99.9338 105.053 97.4434C103.93 94.9531 103.087 92.2448 102.526 89.3186C102.026 86.3924 101.777 83.6841 101.777 81.1938C101.777 78.0808 102.182 75.2169 102.994 72.602C103.805 69.9871 104.897 67.7458 106.27 65.878C107.705 63.948 109.39 62.4537 111.324 61.3953C113.258 60.2747 115.318 59.6832 117.502 59.6209C118.625 59.6209 119.654 59.6521 120.59 59.7143C121.589 59.7143 122.494 59.87 123.305 60.1813C124.116 60.4303 124.834 60.8661 125.458 61.4887C126.082 62.0491 126.612 62.8584 127.049 63.9168C126.986 62.9207 127.018 62.0802 127.142 61.3953C127.33 60.6482 127.423 59.9011 127.423 59.154C127.423 59.0917 127.61 59.0606 127.985 59.0606C128.422 58.9984 128.89 58.9984 129.389 59.0606C129.888 59.0606 130.387 59.0606 130.886 59.0606C131.386 59.0606 131.729 59.0606 131.916 59.0606C132.977 59.1229 134.256 59.1851 135.754 59.2474ZM116.472 74.0028C115.037 75.1858 114.163 76.5555 113.851 78.1119C113.602 78.9213 113.446 79.7618 113.383 80.6334C113.321 81.4428 113.29 82.2522 113.29 83.0616C113.29 85.8632 114.007 88.2602 115.442 90.2525C116.94 92.1825 118.999 93.1476 121.62 93.1476C123.18 93.1476 124.334 92.8985 125.083 92.4004C125.894 91.8401 126.456 91.093 126.768 90.1591C127.142 89.163 127.33 87.98 127.33 86.6103C127.392 85.1784 127.423 83.5908 127.423 81.8475C127.423 79.6684 127.392 77.9563 127.33 76.7111C127.33 75.4037 127.174 74.4075 126.862 73.7227C126.612 73.0378 126.144 72.602 125.458 72.4152C124.834 72.2284 123.866 72.1351 122.556 72.1351C119.998 72.1351 117.97 72.7576 116.472 74.0028Z" fill="black"/>
<path d="M98.4438 51.1227C99.879 53.6131 100.69 56.6327 100.877 60.1814V60.2748C100.877 60.7106 100.877 61.1465 100.877 61.5823C100.877 61.9558 100.846 62.3294 100.784 62.7029C100.409 65.6914 99.411 68.4308 97.7886 70.9212C96.2286 73.4115 94.263 75.5283 91.8918 77.2716C89.5206 79.0149 86.8998 80.2912 84.0294 81.1005C81.159 81.8477 78.2262 81.9722 75.231 81.4741C75.2934 82.3457 75.3246 83.2174 75.3246 84.089C75.3246 84.8984 75.3246 86.1124 75.3246 87.7312C75.3246 89.2876 75.3246 91.4045 75.3246 94.0816C75.387 96.7588 75.4806 100.37 75.6054 104.915V105.008C75.543 105.008 75.4806 105.039 75.4182 105.101C75.4182 105.101 75.387 105.101 75.3246 105.101C74.451 105.351 73.3278 105.537 71.955 105.662C70.6446 105.724 69.2406 105.786 67.743 105.849C66.3078 105.849 64.8726 105.817 63.4374 105.755C62.0022 105.693 60.7542 105.6 59.6934 105.475C59.5062 100.93 59.4126 96.0116 59.4126 90.7196C59.4126 85.3653 59.4126 79.8865 59.4126 74.2832C59.4126 68.6798 59.3814 63.0454 59.319 57.3798C59.319 51.7142 59.2254 46.2976 59.0382 41.1301C61.5966 40.4452 64.3734 39.9472 67.3686 39.6359C70.4262 39.3246 73.4526 39.2935 76.4478 39.5425C79.5054 39.7915 82.4694 40.3519 85.3398 41.2235C88.2102 42.0329 90.7374 43.278 92.9214 44.959C95.1678 46.5778 97.0086 48.6323 98.4438 51.1227ZM86.3694 58.1269C85.9326 57.3798 85.3086 56.7572 84.4974 56.2591C82.9374 55.0139 81.1278 54.2357 79.0686 53.9244C77.0094 53.5508 74.9814 53.6131 72.9846 54.1112C72.8598 54.1112 72.7662 54.1423 72.7038 54.2045C72.7662 55.3252 72.7662 56.5081 72.7038 57.7533C72.7038 58.9985 72.7038 60.2437 72.7038 61.4889C72.7662 62.7341 72.8286 63.9481 72.891 65.131C73.0158 66.2517 73.2342 67.279 73.5462 68.2129H73.827C74.8254 68.1506 75.8862 68.1195 77.0094 68.1195C78.1326 68.0572 79.2246 67.9638 80.2854 67.8393C81.4086 67.7148 82.4694 67.4969 83.4678 67.1856C84.5286 66.812 85.4334 66.2517 86.1822 65.5046C86.6814 64.8198 87.0246 64.0415 87.2118 63.1699C87.4614 62.2982 87.4926 61.4266 87.3054 60.555C87.1806 59.6834 86.8686 58.874 86.3694 58.1269Z" fill="black"/>
<path d="M17.6793 27.2384C18.7489 35.7533 26.9418 46.6944 26.9418 46.6944C26.9418 46.6944 35.578 35.8384 36.6918 27.2384C38.1598 15.904 26.9418 0 26.9418 0C26.9418 0 16.2634 15.966 17.6793 27.2384Z" fill="#43751E"/>
<path d="M11.8116 37.6595C16.2111 43.0763 26.5493 47.1264 26.5493 47.1264C26.5493 47.1264 27.811 35.9525 24.8751 29.5452C21.0057 21.1007 6.45314 14.9185 6.45314 14.9185C6.45314 14.9185 5.98736 30.4886 11.8116 37.6595Z" fill="#58A72F"/>
<path d="M35.1583 35.0089C31.2632 38.5584 28.6651 46.5121 28.6651 46.5121C28.6651 46.5121 37.1609 46.9626 41.8694 44.4695C48.0749 41.1836 52.0955 29.9661 52.0955 29.9661C52.0955 29.9661 40.3148 30.31 35.1583 35.0089Z" fill="#58A72F"/>
<path d="M12.468 43.4254C16.7588 46.2085 24.8781 46.7017 24.8781 46.7017C24.8781 46.7017 23.229 38.6323 19.7338 34.8295C15.1272 29.8175 3.58917 28.788 3.58917 28.788C3.58917 28.788 6.78754 39.741 12.468 43.4254Z" fill="#C1FD88"/>
<path d="M28.9363 29.5447C26.007 35.8746 26.9284 46.9179 26.9284 46.9179C26.9284 46.9179 37.5343 43.1148 42.0004 37.658C47.8866 30.466 47.0223 14.7085 47.0223 14.7085C47.0223 14.7085 32.8142 21.1648 28.9363 29.5447Z" fill="#73D043"/>
<path d="M14.625 50.5856C18.5802 47.4391 21.7546 45.8001 26.8125 45.7216C31.1533 45.6542 34.3106 47.2015 37.5375 50.0992C42.4125 54.4768 45.3375 61.2864 45.3375 61.2864L37.05 56.4224L26.8125 61.2864L16.0875 56.4224L8.28748 59.3408C8.28748 59.3408 11.3198 53.2149 14.625 50.5856Z" fill="#FCFE41"/>
<path d="M15.1126 58.8545L7.31252 62.2593C5.13392 66.0193 4.50972 69.6128 3.90002 74.4193L15.1126 70.5281L26.8126 75.8785L37.5375 71.0145L48.75 75.3921L48.7412 75.229C48.5141 71.0467 48.3558 68.1302 46.3125 63.7185L37.0501 58.8545L26.8126 63.7185L15.1126 58.8545Z" fill="#FDEE79"/>
<path d="M14.7495 72.96L3.9 76.5269C3.30486 84.0617 4.38983 90.1015 5.84992 92.9024L14.7495 86.6332L26.0241 94.3616L37.7889 86.6332L46.7999 92.9024C48.0059 87.6398 49.1182 84.5547 48.75 77.3376L37.7889 72.96L27.3 78.7968L14.7495 72.96Z" fill="#FA7518"/>
<path d="M14.625 89.4976L6.82501 95.3344C6.82501 95.3344 9.36256 100.986 12.1875 103.603C16.255 107.371 19.8065 108.675 25.35 108.954C31.1235 109.243 35.0059 108.219 39.4875 104.576C42.8854 101.814 45.825 95.3344 45.825 95.3344L38.025 89.4976L26.325 97.28L14.625 89.4976Z" fill="#FFCB27"/>
</svg>
