<svg width="248" height="248" viewBox="0 0 248 248" fill="none" xmlns="http://www.w3.org/2000/svg">
<path opacity="0.5" fill-rule="evenodd" clip-rule="evenodd" d="M165.333 113.667H41.3333V165.333C41.3333 194.56 41.3333 209.174 50.413 218.253C59.4927 227.333 74.1062 227.333 103.333 227.333H144.667C173.893 227.333 188.507 227.333 197.587 218.253C206.667 209.174 206.667 194.56 206.667 165.333V155C206.667 135.515 206.667 125.773 200.613 119.72C194.56 113.667 184.818 113.667 165.333 113.667Z" fill="#FFA36B"/>
<path d="M144.667 170.5C144.667 166.137 140.562 163.194 132.353 157.309C124.032 151.344 119.872 148.361 116.769 150.551C113.667 152.741 113.667 158.661 113.667 170.5C113.667 182.339 113.667 188.259 116.769 190.448C119.872 192.639 124.032 189.656 132.353 183.691C140.562 177.806 144.667 174.863 144.667 170.5Z" fill="#FFF5CF"/>
<path d="M137.615 84.7326L143.818 32.7151L95.1409 45.7583L94.7178 48.697L88.4758 101.034L137.235 87.9684L137.615 84.7326Z" fill="#FFC7A5"/>
<path d="M35.9927 77.6539C33.8427 85.6773 36.3423 95.0059 41.3415 113.664L72.3333 105.359L72.7367 102.117L78.9408 50.0992L77.8754 50.3846C59.2182 55.3839 49.8895 57.8834 44.016 63.757C40.1681 67.6048 37.401 72.3977 35.9927 77.6539Z" fill="#FFA36B"/>
<path d="M188.565 74.2148L153.354 83.6494L159.596 31.3131L160.167 28.4995C161.498 28.2339 162.636 28.0701 163.721 27.999C176.233 27.1789 188.006 33.9764 193.552 45.2216C194.902 47.96 195.834 51.4384 197.698 58.3951C198.319 60.7141 198.63 61.8735 198.697 62.8891C198.97 67.0596 196.704 70.9841 192.956 72.8326C192.043 73.2827 190.884 73.5935 188.565 74.2148Z" fill="#FFA36B"/>
</svg>
