<svg width="229" height="229" viewBox="0 0 229 229" fill="none" xmlns="http://www.w3.org/2000/svg">
<path opacity="0.5" d="M9.54169 114.5C9.54169 65.0221 9.54169 40.2833 24.9125 24.9124C40.2833 9.54162 65.0222 9.54163 114.5 9.54163C163.977 9.54163 188.717 9.54162 204.088 24.9124C219.458 40.2833 219.458 65.0221 219.458 114.5C219.458 163.977 219.458 188.717 204.088 204.088C188.717 219.458 163.977 219.458 114.5 219.458C65.0222 219.458 40.2833 219.458 24.9125 204.088C9.54169 188.717 9.54169 163.977 9.54169 114.5Z" fill="#FFA36B"/>
<path d="M132.878 136.463C135.216 134.64 137.336 132.519 141.576 128.279L194.44 75.4149C195.719 74.1369 195.134 71.9355 193.426 71.3431C187.187 69.1782 179.068 65.1137 171.476 57.5206C163.883 49.9275 159.818 41.8103 157.653 35.5702C157.061 33.8627 154.859 33.2777 153.582 34.5558L100.717 87.42C96.4767 91.6605 94.3564 93.7807 92.533 96.119C90.382 98.8765 88.5379 101.86 87.0333 105.018C85.7577 107.694 84.8096 110.538 82.9132 116.227L80.4628 123.579L76.5664 135.267L72.9129 146.228C71.9798 149.028 72.7085 152.114 74.7952 154.201C76.882 156.288 79.9686 157.017 82.7683 156.084L93.7286 152.43L105.417 148.533L112.769 146.083C118.458 144.187 121.302 143.239 123.979 141.963C127.136 140.458 130.12 138.615 132.878 136.463Z" fill="#FFA36B"/>
<path d="M210.992 58.863C222.275 47.58 222.275 29.2868 210.992 18.0038C199.709 6.72089 181.416 6.72089 170.134 18.0038L168.433 19.7034C166.794 21.3434 166.051 23.6342 166.46 25.917C166.718 27.3531 167.196 29.4526 168.065 31.9579C169.804 36.9681 173.086 43.5451 179.269 49.7278C185.451 55.9104 192.028 59.193 197.038 60.9312C199.544 61.8004 201.643 62.2781 203.079 62.5359C205.362 62.9457 207.652 62.2026 209.293 60.5625L210.992 58.863Z" fill="#FFA36B"/>
</svg>
