<svg width="257" height="257" viewBox="0 0 257 257" fill="none" xmlns="http://www.w3.org/2000/svg">
<path opacity="0.5" d="M52.8813 38.3978C46.6085 44.6706 46.6085 54.7665 46.6085 74.9583V149.917H210.383V74.9583C210.383 54.7665 210.383 44.6706 204.11 38.3978C197.838 32.125 187.742 32.125 167.55 32.125H89.4418C69.2499 32.125 59.154 32.125 52.8813 38.3978Z" fill="#FFC7A5"/>
<path fill-rule="evenodd" clip-rule="evenodd" d="M229.063 174.929C229.54 175.422 229.778 175.668 230.001 175.912C233.44 179.688 235.415 184.567 235.573 189.67C235.583 190.001 235.583 190.344 235.583 191.029C235.583 192.627 235.583 193.426 235.54 194.1C234.861 204.865 226.282 213.444 215.517 214.124C214.842 214.167 214.044 214.167 212.446 214.167H44.5539C42.9563 214.167 42.1574 214.167 41.4828 214.124C30.7184 213.444 22.1394 204.865 21.4593 194.1C21.4167 193.426 21.4167 192.627 21.4167 191.029C21.4167 190.344 21.4167 190.001 21.4269 189.67C21.5847 184.567 23.5607 179.688 26.9986 175.912C27.2211 175.668 27.4593 175.423 27.9347 174.931L41.7958 160.625H215.204L229.063 174.929ZM93.6979 192.75C93.6979 188.315 97.2937 184.719 101.729 184.719H155.271C159.706 184.719 163.302 188.315 163.302 192.75C163.302 197.185 159.706 200.781 155.271 200.781H101.729C97.2937 200.781 93.6979 197.185 93.6979 192.75Z" fill="#FFA36B"/>
<path d="M136.531 61.5729C136.531 66.0084 132.935 69.6041 128.5 69.6041C124.065 69.6041 120.469 66.0084 120.469 61.5729C120.469 57.1374 124.065 53.5416 128.5 53.5416C132.935 53.5416 136.531 57.1374 136.531 61.5729Z" fill="#FFF5CF"/>
</svg>
